<svg width="256" height="291" viewBox="0 0 256 291" fill="none" xmlns="http://www.w3.org/2000/svg">
<g clip-path="url(#clip0_268_1760)">
<g filter="url(#filter0_d_268_1760)">
<path d="M39.9734 90.2046C43.9455 106.16 77.5278 208.731 66.6948 215.569C61.6394 215.189 40.6956 206.072 30.946 206.832C14.3354 206.452 -5.16398 269.134 13.9743 282.051C16.8631 283.95 21.2421 285.055 28.8252 282.776C29.9085 282.396 34.1697 277.989 34.1697 277.989C34.1697 277.989 37.8085 274.461 38.8669 267.649C40.645 256.204 38.529 250.52 45.751 246.341C58.0284 239.503 76.0834 268.754 87.6385 263.436C100.999 257.358 94.1383 211.011 89.0829 177.96C83.6665 142.25 76.4445 113.378 71.3891 94.7633C75.3612 89.8247 133.498 76.1486 180.08 62.4724C177.913 155.546 163.795 270.923 173.442 267.441C182.831 263.262 256.633 230.385 244.356 221.648C232.439 213.29 209.69 219.748 204.996 221.268C182.608 207.212 229.912 -0.969735 186.58 19.9244C165.275 24.863 33.4737 69.6904 39.9734 90.2046Z" fill="#009A4B"/>
<path d="M39.9734 90.2046C43.9455 106.16 77.5278 208.731 66.6948 215.569C61.6394 215.189 40.6956 206.072 30.946 206.832C14.3354 206.452 -5.16398 269.134 13.9743 282.051C16.8631 283.95 21.2421 285.055 28.8252 282.776C29.9085 282.396 34.1697 277.989 34.1697 277.989C34.1697 277.989 37.8085 274.461 38.8669 267.649C40.645 256.204 38.529 250.52 45.751 246.341C58.0284 239.503 76.0834 268.754 87.6385 263.436C100.999 257.358 94.1383 211.011 89.0829 177.96C83.6665 142.25 76.4445 113.378 71.3891 94.7633C75.3612 89.8247 133.498 76.1486 180.08 62.4724C177.913 155.546 163.795 270.923 173.442 267.441C182.831 263.262 256.633 230.385 244.356 221.648C232.439 213.29 209.69 219.748 204.996 221.268C182.608 207.212 229.912 -0.969735 186.58 19.9244C165.275 24.863 33.4737 69.6904 39.9734 90.2046Z" stroke="#18160C" stroke-width="4.54332" stroke-miterlimit="10"/>
</g>
<path d="M245.729 227.693C245.368 229.212 245.007 230.352 244.285 231.871" stroke="#18160C" stroke-width="1.13583" stroke-miterlimit="10"/>
<path d="M154.713 93.8022C162.96 92.2628 166.906 74.7711 163.527 54.7335C160.147 34.6958 150.722 19.7001 142.475 21.2395C134.228 22.7789 130.283 40.2706 133.662 60.3082C137.041 80.3459 146.466 95.3416 154.713 93.8022Z" fill="#F8F8F2" stroke="#18160C" stroke-width="4.54332" stroke-miterlimit="10"/>
<path d="M154.71 65.9412C158.199 65.0545 159.889 59.3763 158.484 53.2585C157.079 47.1407 153.112 42.9001 149.623 43.7868C146.134 44.6735 144.444 50.3518 145.849 56.4695C147.254 62.5873 151.221 66.8279 154.71 65.9412Z" fill="#18160C" stroke="#18160C" stroke-width="4.54332" stroke-miterlimit="10"/>
<path d="M156.239 61.3937C158.527 60.6545 159.527 57.1289 158.473 53.519C157.419 49.909 154.71 47.5818 152.423 48.321C150.135 49.0602 149.135 52.5858 150.189 56.1958C151.243 59.8057 153.952 62.1329 156.239 61.3937Z" fill="#F8F8F2"/>
<path d="M107.04 98.3083C115.287 96.7689 119.233 79.2772 115.853 59.2396C112.474 39.2019 103.049 24.2062 94.8019 25.7456C86.555 27.285 82.6092 44.7767 85.9887 64.8143C89.3681 84.852 98.7931 99.8477 107.04 98.3083Z" fill="#F8F8F2" stroke="#18160C" stroke-width="4.54332" stroke-miterlimit="10"/>
<path d="M106.759 75.4459C110.249 74.5592 111.938 68.8809 110.534 62.7632C109.129 56.6454 105.162 52.4048 101.673 53.2915C98.1834 54.1782 96.4937 59.8564 97.8985 65.9742C99.3032 72.092 103.27 76.3326 106.759 75.4459Z" fill="#18160C" stroke="#18160C" stroke-width="4.54332" stroke-miterlimit="10"/>
<path d="M108.309 70.9022C110.597 70.1631 111.597 66.6374 110.543 63.0275C109.489 59.4176 106.78 57.0904 104.493 57.8296C102.205 58.5687 101.205 62.0944 102.259 65.7043C103.313 69.3142 106.022 71.6414 108.309 70.9022Z" fill="#F8F8F2"/>
<path d="M131.983 13.8133C131.261 13.4334 134.872 4.31599 142.455 2.41652C148.594 1.27685 154.371 5.83556 154.01 6.21546C154.01 6.97524 149.677 4.31599 144.26 5.45567C136.677 6.97524 132.705 14.1932 131.983 13.8133Z" fill="#18160C" stroke="#18160C" stroke-width="4.54332" stroke-miterlimit="10"/>
<path d="M78.5402 22.5505C77.818 22.1706 80.7068 12.6733 87.9288 10.3939C94.0675 8.49445 100.206 12.6733 99.8451 13.4331C99.8451 14.1928 95.5119 11.9135 90.0954 13.4331C82.5123 15.7124 79.2624 23.3103 78.5402 22.5505Z" fill="#18160C" stroke="#18160C" stroke-width="4.54332" stroke-miterlimit="10"/>
<path d="M155.094 103.848C156.177 104.988 147.872 121.703 133.428 123.223C121.511 124.362 111.4 114.865 111.762 113.345C112.123 112.206 119.706 117.524 130.178 116.764C145.344 115.245 154.01 102.708 155.094 103.848Z" fill="#F0EEE1" stroke="#18160C" stroke-width="4.54332" stroke-miterlimit="10"/>
</g>
<defs>
<filter id="filter0_d_268_1760" x="3.78638" y="16.1802" width="251.744" height="273.908" filterUnits="userSpaceOnUse" color-interpolation-filters="sRGB">
<feFlood flood-opacity="0" result="BackgroundImageFix"/>
<feColorMatrix in="SourceAlpha" type="matrix" values="0 0 0 0 0 0 0 0 0 0 0 0 0 0 0 0 0 0 127 0" result="hardAlpha"/>
<feOffset dx="7.52941" dy="3.76471"/>
<feComposite in2="hardAlpha" operator="out"/>
<feColorMatrix type="matrix" values="0 0 0 0 0.0941176 0 0 0 0 0.0862745 0 0 0 0 0.0470588 0 0 0 1 0"/>
<feBlend mode="normal" in2="BackgroundImageFix" result="effect1_dropShadow_268_1760"/>
<feBlend mode="normal" in="SourceGraphic" in2="effect1_dropShadow_268_1760" result="shape"/>
</filter>
<clipPath id="clip0_268_1760">
<rect width="256" height="290.635" fill="white"/>
</clipPath>
</defs>
</svg>
