<svg width="340" height="386" viewBox="0 0 340 386" fill="none" xmlns="http://www.w3.org/2000/svg">
<g clip-path="url(#clip0_97_822)">
<path d="M63.0897 127.803C68.3651 148.994 112.967 285.221 98.579 294.303C91.8648 293.798 64.0489 281.689 51.1001 282.698C29.0392 282.194 3.14157 365.444 28.5596 382.598C32.3963 385.121 38.2121 386.589 48.2834 383.562C49.7222 383.057 55.3817 377.204 55.3817 377.204C55.3817 377.204 60.2143 372.518 61.62 363.471C63.9816 348.271 61.1714 340.721 70.7631 335.171C87.069 326.089 111.048 364.939 126.395 357.876C144.14 349.803 135.027 288.248 128.313 244.353C121.119 196.926 111.528 158.58 104.814 133.858C110.089 127.298 187.302 109.135 249.169 90.9711C246.291 214.585 227.54 367.82 240.353 363.195C252.822 357.645 350.841 313.98 334.535 302.376C318.709 291.276 288.495 299.853 282.26 301.871C252.526 283.203 315.351 6.71202 257.801 34.462C229.506 41.0211 54.4572 100.558 63.0897 127.803Z" fill="#18160C"/>
<path d="M53.0897 119.803C58.3651 140.994 102.967 277.221 88.579 286.303C81.8648 285.798 54.0489 273.689 41.1001 274.698C19.0392 274.194 -6.85843 357.444 18.5596 374.598C22.3963 377.121 28.2121 378.589 38.2834 375.562C39.7222 375.057 45.3817 369.204 45.3817 369.204C45.3817 369.204 50.2143 364.518 51.62 355.471C53.9816 340.271 51.1714 332.721 60.7631 327.171C77.069 318.089 101.048 356.939 116.395 349.876C134.14 341.803 125.027 280.248 118.313 236.353C111.119 188.926 101.528 150.58 94.8136 125.858C100.089 119.298 177.302 101.135 239.169 82.9711C236.291 206.585 217.54 359.82 230.353 355.195C242.822 349.645 340.841 305.98 324.535 294.376C308.709 283.276 278.495 291.853 272.26 293.871C242.526 275.203 305.351 -1.28798 247.801 26.462C219.506 33.0211 44.4572 92.5575 53.0897 119.803Z" fill="#009A4B" stroke="#18160C" stroke-width="6.03409" stroke-miterlimit="10"/>
<path d="M205.479 124.583C216.433 122.538 221.673 99.3067 217.185 72.6936C212.696 46.0806 200.179 26.1639 189.225 28.2085C178.272 30.2531 173.032 53.4847 177.52 80.0977C182.008 106.711 194.526 126.628 205.479 124.583Z" fill="#F8F8F2" stroke="#18160C" stroke-width="6.03409" stroke-miterlimit="10"/>
<path d="M205.475 87.5792C210.109 86.4015 212.353 78.8597 210.487 70.7342C208.622 62.6087 203.353 56.9764 198.718 58.1541C194.084 59.3318 191.84 66.8735 193.706 74.999C195.572 83.1246 200.841 88.7569 205.475 87.5792Z" fill="#18160C" stroke="#18160C" stroke-width="6.03409" stroke-miterlimit="10"/>
<path d="M207.506 81.5389C210.544 80.5571 211.872 75.8745 210.473 71.0799C209.073 66.2854 205.475 63.1945 202.437 64.1762C199.399 65.158 198.07 69.8406 199.47 74.6352C200.87 79.4297 204.468 82.5206 207.506 81.5389Z" fill="#F8F8F2"/>
<path d="M142.164 130.567C153.117 128.523 158.357 105.291 153.869 78.6781C149.38 52.0651 136.863 32.1484 125.91 34.193C114.956 36.2376 109.716 59.4692 114.204 86.0822C118.693 112.695 131.21 132.612 142.164 130.567Z" fill="#F8F8F2" stroke="#18160C" stroke-width="6.03409" stroke-miterlimit="10"/>
<path d="M141.791 100.202C146.425 99.0248 148.669 91.483 146.803 83.3575C144.938 75.232 139.668 69.5997 135.034 70.7774C130.4 71.9551 128.156 79.4968 130.022 87.6223C131.887 95.7479 137.157 101.38 141.791 100.202Z" fill="#18160C" stroke="#18160C" stroke-width="6.03409" stroke-miterlimit="10"/>
<path d="M143.849 94.1674C146.887 93.1857 148.215 88.503 146.815 83.7085C145.415 78.9139 141.818 75.823 138.78 76.8048C135.741 77.7865 134.413 82.4691 135.813 87.2637C137.213 92.0583 140.81 95.1492 143.849 94.1674Z" fill="#F8F8F2"/>
<path d="M175.29 18.3456C174.331 17.8411 179.127 5.73201 189.198 3.20928C197.351 1.69565 205.024 7.75019 204.545 8.25474C204.545 9.26383 198.79 5.73201 191.596 7.24565C181.525 9.26383 176.249 18.8502 175.29 18.3456Z" fill="#18160C" stroke="#18160C" stroke-width="6.03409" stroke-miterlimit="10"/>
<path d="M104.311 29.9498C103.352 29.4452 107.189 16.8316 116.781 13.8043C124.934 11.2816 133.086 16.8316 132.607 17.8407C132.607 18.8498 126.852 15.8225 119.658 17.8407C109.587 20.868 105.271 30.9589 104.311 29.9498Z" fill="#18160C" stroke="#18160C" stroke-width="6.03409" stroke-miterlimit="10"/>
<path d="M205.984 137.923C207.422 139.437 196.392 161.637 177.208 163.655C161.382 165.169 147.954 152.555 148.433 150.537C148.913 149.023 158.984 156.087 172.892 155.078C193.035 153.059 204.545 136.409 205.984 137.923Z" stroke="#18160C" stroke-width="6.03409" stroke-miterlimit="10"/>
</g>
<defs>
<clipPath id="clip0_97_822">
<rect width="340" height="386" fill="white"/>
</clipPath>
</defs>
</svg>
